<svg width="18" height="18" viewBox="0 0 18 18" fill="none" xmlns="http://www.w3.org/2000/svg">
<path d="M7.31002 9.00088C7.31002 9.93354 8.06609 10.6896 8.99876 10.6896C9.93142 10.6896 10.6875 9.93354 10.6875 9.00088C10.6875 8.06821 9.93142 7.31213 8.99876 7.31213C8.06609 7.31213 7.31002 8.06821 7.31002 9.00088Z" fill="#767676"/>
<path d="M7.31002 14.6256C7.31002 15.5583 8.06609 16.3144 8.99876 16.3144C9.93142 16.3144 10.6875 15.5583 10.6875 14.6256C10.6875 13.693 9.93142 12.9369 8.99876 12.9369C8.06609 12.9369 7.31002 13.693 7.31002 14.6256Z" fill="#767676"/>
<path d="M7.31002 3.37551C7.31002 4.30818 8.06609 5.06425 8.99876 5.06425C9.93142 5.06425 10.6875 4.30818 10.6875 3.37551C10.6875 2.44284 9.93142 1.68677 8.99876 1.68677C8.06609 1.68677 7.31002 2.44284 7.31002 3.37551Z" fill="#767676"/>
</svg>
