<svg width="20" height="20" viewBox="0 0 20 20" fill="none" xmlns="http://www.w3.org/2000/svg">
<path d="M10.0009 11.8778C11.0372 11.8778 11.8773 11.0377 11.8773 10.0014C11.8773 8.96508 11.0372 8.125 10.0009 8.125C8.9646 8.125 8.12451 8.96508 8.12451 10.0014C8.12451 11.0377 8.9646 11.8778 10.0009 11.8778Z" fill="#F4800B"/>
<path d="M16.2506 11.8778C17.2869 11.8778 18.127 11.0377 18.127 10.0014C18.127 8.96508 17.2869 8.125 16.2506 8.125C15.2144 8.125 14.3743 8.96508 14.3743 10.0014C14.3743 11.0377 15.2144 11.8778 16.2506 11.8778Z" fill="#F4800B"/>
<path d="M3.75065 11.8778C4.78694 11.8778 5.62703 11.0377 5.62703 10.0014C5.62703 8.96508 4.78694 8.125 3.75065 8.125C2.71435 8.125 1.87427 8.96508 1.87427 10.0014C1.87427 11.0377 2.71435 11.8778 3.75065 11.8778Z" fill="#F4800B"/>
</svg>
