<svg width="20" height="20" viewBox="0 0 20 20" fill="none" xmlns="http://www.w3.org/2000/svg">
<path d="M10.0009 11.8778C11.0372 11.8778 11.8773 11.0377 11.8773 10.0014C11.8773 8.96508 11.0372 8.125 10.0009 8.125C8.9646 8.125 8.12451 8.96508 8.12451 10.0014C8.12451 11.0377 8.9646 11.8778 10.0009 11.8778Z" fill="#767676"/>
<path d="M16.2509 11.8778C17.2872 11.8778 18.1273 11.0377 18.1273 10.0014C18.1273 8.96508 17.2872 8.125 16.2509 8.125C15.2146 8.125 14.3745 8.96508 14.3745 10.0014C14.3745 11.0377 15.2146 11.8778 16.2509 11.8778Z" fill="#767676"/>
<path d="M3.7504 11.8778C4.7867 11.8778 5.62678 11.0377 5.62678 10.0014C5.62678 8.96508 4.7867 8.125 3.7504 8.125C2.71411 8.125 1.87402 8.96508 1.87402 10.0014C1.87402 11.0377 2.71411 11.8778 3.7504 11.8778Z" fill="#767676"/>
</svg>
