<svg width="179" height="74" viewBox="0 0 179 74" fill="none" xmlns="http://www.w3.org/2000/svg">
<g filter="url(#filter0_d_28_809)">
<path d="M2.68217 60.09V43.6L29.5422 1.35499H53.3422V41.9H58.9522V60.09H53.3422V67.74H27.8422V60.09H2.68217ZM24.1872 33.315L22.6572 35.61C25.8872 37.14 28.8055 38.16 31.4122 38.67C34.0755 39.18 36.6255 39.435 39.0622 39.435V36.885C36.7955 36.885 34.4722 36.63 32.0922 36.12C29.7688 35.5533 27.1338 34.6183 24.1872 33.315ZM62.0308 34.59C62.0308 28.9233 62.6541 23.9367 63.9008 19.63C65.2041 15.3233 67.0174 11.725 69.3408 8.83499C71.7208 5.94499 74.5541 3.76333 77.8408 2.29C81.1841 0.816663 84.8958 0.0799962 88.9758 0.0799962C93.0558 0.0799962 96.7674 0.816663 100.111 2.29C103.454 3.76333 106.287 5.94499 108.611 8.83499C110.991 11.725 112.804 15.3233 114.051 19.63C115.354 23.9367 116.006 28.9233 116.006 34.59C116.006 40.2567 115.354 45.2433 114.051 49.55C112.804 53.8567 110.991 57.455 108.611 60.345C106.287 63.235 103.454 65.4167 100.111 66.89C96.7674 68.3633 93.0558 69.1 88.9758 69.1C84.8958 69.1 81.1841 68.3633 77.8408 66.89C74.5541 65.4733 71.7208 63.32 69.3408 60.43C67.0174 57.54 65.2041 53.9417 63.9008 49.635C62.6541 45.3283 62.0308 40.3133 62.0308 34.59ZM79.1158 31.105L77.5858 33.4C80.8158 34.93 84.4708 35.95 88.5508 36.46C92.6308 36.97 96.7108 37.225 100.791 37.225V34.675C96.7108 34.675 92.8008 34.42 89.0608 33.91C85.3774 33.3433 82.0624 32.4083 79.1158 31.105ZM120.304 60.09V43.6L147.164 1.35499H170.964V41.9H176.574V60.09H170.964V67.74H145.464V60.09H120.304ZM141.809 33.315L140.279 35.61C143.509 37.14 146.428 38.16 149.034 38.67C151.698 39.18 154.248 39.435 156.684 39.435V36.885C154.418 36.885 152.094 36.63 149.714 36.12C147.391 35.5533 144.756 34.6183 141.809 33.315Z" fill="#F4800B"/>
</g>
<defs>
<filter id="filter0_d_28_809" x="0.682129" y="0.0799561" width="177.892" height="73.02" filterUnits="userSpaceOnUse" color-interpolation-filters="sRGB">
<feFlood flood-opacity="0" result="BackgroundImageFix"/>
<feColorMatrix in="SourceAlpha" type="matrix" values="0 0 0 0 0 0 0 0 0 0 0 0 0 0 0 0 0 0 127 0" result="hardAlpha"/>
<feOffset dy="2"/>
<feGaussianBlur stdDeviation="1"/>
<feComposite in2="hardAlpha" operator="out"/>
<feColorMatrix type="matrix" values="0 0 0 0 0 0 0 0 0 0 0 0 0 0 0 0 0 0 0.1 0"/>
<feBlend mode="normal" in2="BackgroundImageFix" result="effect1_dropShadow_28_809"/>
<feBlend mode="normal" in="SourceGraphic" in2="effect1_dropShadow_28_809" result="shape"/>
</filter>
</defs>
</svg>
